<svg xmlns="http://www.w3.org/2000/svg" viewBox="0 0 512 512" role="img" aria-label="Quebec French Tutor">
  <!--
    Next.js App Router favicon convention: this file is served automatically
    as the site icon. Same mark as public/logo.svg, same path data on
    purpose - see the comment there. scripts/make-icons.ps1 re-renders these
    same path strings to produce assets/tutor.ico and the PNG sizes used by
    the Windows shortcut and (indirectly, via tutor-1024.png) the macOS icon.
  -->
  <path
    d="M110,0 L402,0 A110,110 0 0 1 512,110 L512,402 A110,110 0 0 1 402,512 L110,512 A110,110 0 0 1 0,402 L0,110 A110,110 0 0 1 110,0 Z"
    fill="#1B3FAE"/>
  <path
    fill-rule="evenodd"
    d="M156,96 L356,96 A64,64 0 0 1 420,160 L420,304 A64,64 0 0 1 356,368 L268,368 L172,438 L196,368 L156,368 A64,64 0 0 1 92,304 L92,160 A64,64 0 0 1 156,96 Z M210,286 L328,208 L308,178 L190,256 Z"
    fill="#FDFBF7"/>
</svg>
